<svg width="68" height="26" viewBox="0 0 68 26" fill="none" xmlns="http://www.w3.org/2000/svg">
<path d="M1.1 19.34C1.60667 19.3133 1.95333 19.2 2.14 19C2.32667 18.7867 2.42667 18.5 2.44 18.14C2.46667 17.7667 2.48 17.3467 2.48 16.88V8.24C2.48 7.97333 2.48667 7.72 2.5 7.48C2.51333 7.22667 2.52667 7 2.54 6.8C2.3 6.81333 2.06 6.82667 1.82 6.84C1.58 6.85333 1.34 6.86667 1.1 6.88V6L5.82 5.98C7.02 5.98 8.12 6.12 9.12 6.4C10.12 6.68 10.98 7.11333 11.7 7.7C12.4333 8.27333 12.9933 9.00667 13.38 9.9C13.78 10.78 13.98 11.82 13.98 13.02C13.98 13.94 13.82 14.82 13.5 15.66C13.18 16.5 12.7 17.2467 12.06 17.9C11.42 18.54 10.62 19.0533 9.66 19.44C8.71333 19.8133 7.61333 20 6.36 20H1.1V19.34ZM4.22 17.64C4.22 18 4.21333 18.3067 4.2 18.56C4.2 18.8133 4.18667 19.0267 4.16 19.2C4.52 19.2133 4.84667 19.2267 5.14 19.24C5.44667 19.24 5.7 19.24 5.9 19.24C6.11333 19.24 6.24667 19.24 6.3 19.24C7.16667 19.24 7.94667 19.08 8.64 18.76C9.34667 18.44 9.94667 18 10.44 17.44C10.9467 16.8667 11.3333 16.2 11.6 15.44C11.88 14.6667 12.02 13.8333 12.02 12.94C12.02 11.6733 11.7867 10.58 11.32 9.66C10.8667 8.72667 10.1667 8.00667 9.22 7.5C8.27333 6.98 7.06667 6.72 5.6 6.72C5.10667 6.72 4.76 6.82 4.56 7.02C4.37333 7.22 4.26667 7.5 4.24 7.86C4.22667 8.22 4.22 8.64 4.22 9.12V17.64ZM15.7823 19.4C16.1957 19.4 16.4823 19.3 16.6423 19.1C16.8023 18.8867 16.8957 18.6 16.9223 18.24C16.949 17.8667 16.9623 17.44 16.9623 16.96V12.4C16.9623 12.1867 16.9623 11.9733 16.9623 11.76C16.9757 11.5467 17.0023 11.3267 17.0423 11.1C16.8023 11.1133 16.5623 11.1267 16.3223 11.14C16.0957 11.14 15.8623 11.1467 15.6223 11.16V10.34H16.2423C16.8157 10.34 17.209 10.2867 17.4223 10.18C17.649 10.06 17.8357 9.93333 17.9823 9.8H18.5623C18.589 10.0133 18.609 10.28 18.6223 10.6C18.6357 10.9067 18.649 11.3 18.6623 11.78C18.8623 11.4467 19.1357 11.12 19.4823 10.8C19.829 10.48 20.2157 10.2133 20.6423 10C21.0823 9.78667 21.5423 9.68 22.0223 9.68C22.3957 9.68 22.7223 9.78 23.0023 9.98C23.2823 10.18 23.4223 10.5 23.4223 10.94C23.4223 11.0467 23.389 11.18 23.3223 11.34C23.2557 11.4867 23.149 11.62 23.0023 11.74C22.8557 11.8467 22.6623 11.9 22.4223 11.9C22.129 11.8867 21.8957 11.7733 21.7223 11.56C21.549 11.3333 21.4823 11.0733 21.5223 10.78C21.189 10.7667 20.8423 10.8533 20.4823 11.04C20.1357 11.2267 19.809 11.4867 19.5023 11.82C19.1957 12.14 18.9223 12.52 18.6823 12.96L18.7023 17.88C18.7023 18.1467 18.6957 18.3867 18.6823 18.6C18.6823 18.8 18.6623 19.0133 18.6223 19.24C18.8357 19.2267 19.0423 19.22 19.2423 19.22C19.4557 19.2067 19.669 19.1933 19.8823 19.18V20H15.7823V19.4ZM30.378 20C30.338 19.7733 30.3113 19.5733 30.298 19.4C30.2846 19.2267 30.2646 19.0467 30.238 18.86C29.7846 19.3133 29.2913 19.6733 28.758 19.94C28.238 20.1933 27.6846 20.32 27.098 20.32C26.0846 20.32 25.3313 20.0933 24.838 19.64C24.3446 19.1733 24.098 18.6067 24.098 17.94C24.098 17.3267 24.2846 16.8 24.658 16.36C25.0446 15.9067 25.538 15.54 26.138 15.26C26.7513 14.9667 27.4113 14.7533 28.118 14.62C28.838 14.4733 29.5313 14.4067 30.198 14.42V13.18C30.198 12.7133 30.158 12.2733 30.078 11.86C29.998 11.4467 29.8246 11.1067 29.558 10.84C29.2913 10.5733 28.8646 10.4333 28.278 10.42C27.8913 10.4067 27.4913 10.48 27.078 10.64C26.678 10.8 26.3846 11.0733 26.198 11.46C26.3046 11.5667 26.3713 11.6933 26.398 11.84C26.438 11.9733 26.458 12.1 26.458 12.22C26.458 12.38 26.3913 12.5667 26.258 12.78C26.1246 12.98 25.8913 13.0733 25.558 13.06C25.278 13.06 25.0646 12.9667 24.918 12.78C24.7713 12.58 24.698 12.3467 24.698 12.08C24.698 11.6267 24.8646 11.22 25.198 10.86C25.5446 10.5 26.018 10.2133 26.618 10C27.218 9.78667 27.898 9.68 28.658 9.68C29.778 9.68 30.6046 9.98 31.138 10.58C31.6713 11.1667 31.9313 12.1 31.918 13.38C31.918 13.8733 31.918 14.3733 31.918 14.88C31.918 15.3733 31.9113 15.8733 31.898 16.38C31.898 16.8733 31.898 17.3733 31.898 17.88C31.898 18.0933 31.8913 18.3067 31.878 18.52C31.8646 18.7333 31.8446 18.9733 31.818 19.24C32.058 19.2267 32.2913 19.2133 32.518 19.2C32.758 19.1867 32.998 19.1733 33.238 19.16V20H30.378ZM30.198 15.1C29.7446 15.1133 29.2646 15.1733 28.758 15.28C28.2646 15.3733 27.8046 15.52 27.378 15.72C26.9646 15.92 26.6246 16.1867 26.358 16.52C26.1046 16.84 25.9846 17.2333 25.998 17.7C26.0246 18.1933 26.1846 18.5667 26.478 18.82C26.7846 19.06 27.1446 19.18 27.558 19.18C28.1046 19.18 28.578 19.08 28.978 18.88C29.3913 18.6667 29.798 18.3733 30.198 18C30.1846 17.8533 30.178 17.6933 30.178 17.52C30.178 17.3467 30.178 17.1667 30.178 16.98C30.178 16.9133 30.178 16.7 30.178 16.34C30.1913 15.98 30.198 15.5667 30.198 15.1ZM37.7575 20.06L35.1375 12.38C35.0442 12.1 34.9575 11.86 34.8775 11.66C34.8108 11.46 34.7575 11.2867 34.7175 11.14C34.6775 10.9933 34.6442 10.8667 34.6175 10.76L33.5575 10.82V10H37.7975V10.6C37.1975 10.6133 36.8642 10.82 36.7975 11.22C36.7442 11.6067 36.8242 12.12 37.0375 12.76L37.9575 15.56C38.0642 15.88 38.1708 16.2067 38.2775 16.54C38.3842 16.86 38.4908 17.18 38.5975 17.5C38.7175 17.14 38.8375 16.78 38.9575 16.42C39.0908 16.0467 39.2175 15.6733 39.3375 15.3L41.1175 10H41.9375L43.9575 15.82C44.0642 16.1133 44.1708 16.4133 44.2775 16.72C44.3842 17.0267 44.4908 17.3333 44.5975 17.64C44.7042 17.3467 44.8042 17.06 44.8975 16.78C45.0042 16.4867 45.1042 16.1933 45.1975 15.9L46.5175 12.1C46.6108 11.8333 46.7042 11.58 46.7975 11.34C46.8908 11.1 46.9975 10.9067 47.1175 10.76L45.9575 10.82V10H49.4375V10.6C49.0908 10.6133 48.8042 10.66 48.5775 10.74C48.3642 10.82 48.1842 10.9267 48.0375 11.06C47.8908 11.1933 47.7708 11.3533 47.6775 11.54C47.5842 11.7267 47.4975 11.94 47.4175 12.18L44.5375 20.06H43.7375L41.8375 14.6C41.7575 14.36 41.6775 14.1267 41.5975 13.9C41.5175 13.66 41.4375 13.4267 41.3575 13.2C41.2775 12.96 41.1975 12.7267 41.1175 12.5C41.0375 12.7267 40.9575 12.96 40.8775 13.2C40.7975 13.4267 40.7175 13.66 40.6375 13.9C40.5575 14.1267 40.4775 14.36 40.3975 14.6L38.5175 20.06H37.7575ZM64.6009 20.32C64.2943 20.32 63.9809 20.2733 63.6609 20.18C63.3409 20.1 63.0409 19.9333 62.7609 19.68C62.4943 19.4267 62.2809 19.06 62.1209 18.58C61.9609 18.0867 61.8809 17.44 61.8809 16.64L61.9209 10.84L60.3809 10.86V10C60.7276 9.98667 61.0809 9.86 61.4409 9.62C61.8009 9.36667 62.1209 9.02667 62.4009 8.6C62.6943 8.17333 62.8943 7.70667 63.0009 7.2H63.6809V10H67.0409V10.78L63.6809 10.82L63.6409 16.38C63.6409 16.98 63.6876 17.4933 63.7809 17.92C63.8876 18.3333 64.0543 18.6467 64.2809 18.86C64.5076 19.0733 64.8009 19.18 65.1609 19.18C65.5343 19.18 65.8809 19.0733 66.2009 18.86C66.5343 18.6467 66.8276 18.3533 67.0809 17.98L67.6209 18.42C67.3276 18.86 67.0343 19.2067 66.7409 19.46C66.4609 19.7133 66.1876 19.9 65.9209 20.02C65.6543 20.1533 65.4076 20.2333 65.1809 20.26C64.9543 20.3 64.7609 20.32 64.6009 20.32Z" fill="black"/>
<rect x="49.6013" y="17.4733" width="14.9015" height="2.68528" transform="rotate(-57.1972 49.6013 17.4733)" fill="#F0F435"/>
<rect x="57.6742" y="4.94763" width="0.986131" height="2.68528" transform="rotate(-57.1972 57.6742 4.94763)" fill="#FF00B8"/>
<path d="M49.3009 20.388L49.596 17.4751L51.8444 18.9296L49.3009 20.388Z" fill="#6E6E6E"/>
</svg>
